<mxfile host="Electron" modified="2023-07-28T12:27:17.518Z" agent="Mozilla/5.0 (Macintosh; Intel Mac OS X 10_15_7) AppleWebKit/537.36 (KHTML, like Gecko) draw.io/21.6.5 Chrome/114.0.5735.243 Electron/25.3.1 Safari/537.36" etag="Qbs0vlu7NNjrCr1NeXuP" version="21.6.5" type="device">
  <diagram name="Seite-1" id="ZQ3ikfZNi-QzSDGIb_J3">
    <mxGraphModel dx="566" dy="749" grid="1" gridSize="10" guides="1" tooltips="1" connect="1" arrows="1" fold="1" page="1" pageScale="1" pageWidth="827" pageHeight="1169" math="0" shadow="0">
      <root>
        <mxCell id="0" />
        <mxCell id="1" parent="0" />
        <mxCell id="HoBC95rg8Yf5UBeSWaIH-95" value="" style="group" vertex="1" connectable="0" parent="1">
          <mxGeometry x="942" y="262" width="600" height="645" as="geometry" />
        </mxCell>
        <mxCell id="HoBC95rg8Yf5UBeSWaIH-42" style="edgeStyle=orthogonalEdgeStyle;rounded=0;orthogonalLoop=1;jettySize=auto;html=1;endArrow=none;endFill=0;dashed=1;" edge="1" parent="HoBC95rg8Yf5UBeSWaIH-95" source="HoBC95rg8Yf5UBeSWaIH-72">
          <mxGeometry relative="1" as="geometry">
            <mxPoint x="549" y="640" as="targetPoint" />
            <Array as="points">
              <mxPoint x="550" y="630" />
              <mxPoint x="550" y="630" />
            </Array>
          </mxGeometry>
        </mxCell>
        <mxCell id="HoBC95rg8Yf5UBeSWaIH-43" value="&lt;font style=&quot;font-size: 14px;&quot;&gt;Server&lt;/font&gt;" style="image;aspect=fixed;perimeter=ellipsePerimeter;html=1;align=center;shadow=0;dashed=0;fontColor=#000000;labelBackgroundColor=none;fontSize=12;spacingTop=3;image=img/lib/ibm/infrastructure/mobile_backend.svg;labelPosition=center;verticalLabelPosition=top;verticalAlign=bottom;" vertex="1" parent="HoBC95rg8Yf5UBeSWaIH-95">
          <mxGeometry x="520" width="60" height="60" as="geometry" />
        </mxCell>
        <mxCell id="HoBC95rg8Yf5UBeSWaIH-44" style="edgeStyle=orthogonalEdgeStyle;rounded=0;orthogonalLoop=1;jettySize=auto;html=1;endArrow=none;endFill=0;dashed=1;" edge="1" parent="HoBC95rg8Yf5UBeSWaIH-95" source="HoBC95rg8Yf5UBeSWaIH-53">
          <mxGeometry relative="1" as="geometry">
            <mxPoint x="280" y="640" as="targetPoint" />
          </mxGeometry>
        </mxCell>
        <mxCell id="HoBC95rg8Yf5UBeSWaIH-45" value="&lt;font style=&quot;font-size: 14px;&quot;&gt;User&lt;/font&gt;" style="image;aspect=fixed;perimeter=ellipsePerimeter;html=1;align=center;shadow=0;dashed=0;fontColor=#000000;labelBackgroundColor=none;fontSize=12;spacingTop=3;image=img/lib/ibm/blockchain/blockchain_developer.svg;labelPosition=center;verticalLabelPosition=top;verticalAlign=bottom;" vertex="1" parent="HoBC95rg8Yf5UBeSWaIH-95">
          <mxGeometry x="250" width="60" height="60" as="geometry" />
        </mxCell>
        <mxCell id="HoBC95rg8Yf5UBeSWaIH-46" value="" style="edgeStyle=orthogonalEdgeStyle;rounded=0;orthogonalLoop=1;jettySize=auto;html=1;endArrow=none;endFill=0;dashed=1;" edge="1" parent="HoBC95rg8Yf5UBeSWaIH-95" source="HoBC95rg8Yf5UBeSWaIH-45" target="HoBC95rg8Yf5UBeSWaIH-53">
          <mxGeometry relative="1" as="geometry">
            <mxPoint x="280" y="630" as="targetPoint" />
            <mxPoint x="280" y="60" as="sourcePoint" />
          </mxGeometry>
        </mxCell>
        <mxCell id="HoBC95rg8Yf5UBeSWaIH-53" value="" style="rounded=0;whiteSpace=wrap;html=1;" vertex="1" parent="HoBC95rg8Yf5UBeSWaIH-95">
          <mxGeometry x="260" y="100" width="40" height="450" as="geometry" />
        </mxCell>
        <mxCell id="HoBC95rg8Yf5UBeSWaIH-54" value="" style="edgeStyle=orthogonalEdgeStyle;rounded=0;orthogonalLoop=1;jettySize=auto;html=1;endArrow=none;endFill=0;dashed=1;" edge="1" parent="HoBC95rg8Yf5UBeSWaIH-95" source="HoBC95rg8Yf5UBeSWaIH-43" target="HoBC95rg8Yf5UBeSWaIH-57">
          <mxGeometry relative="1" as="geometry">
            <mxPoint x="550" y="640" as="targetPoint" />
            <mxPoint x="550" y="60" as="sourcePoint" />
          </mxGeometry>
        </mxCell>
        <mxCell id="HoBC95rg8Yf5UBeSWaIH-76" style="edgeStyle=orthogonalEdgeStyle;rounded=0;orthogonalLoop=1;jettySize=auto;html=1;exitX=0;exitY=0.25;exitDx=0;exitDy=0;entryX=1.014;entryY=0.11;entryDx=0;entryDy=0;entryPerimeter=0;startArrow=classic;startFill=1;endArrow=none;endFill=0;" edge="1" parent="HoBC95rg8Yf5UBeSWaIH-95" source="HoBC95rg8Yf5UBeSWaIH-57" target="HoBC95rg8Yf5UBeSWaIH-53">
          <mxGeometry relative="1" as="geometry" />
        </mxCell>
        <mxCell id="HoBC95rg8Yf5UBeSWaIH-77" value="&lt;font style=&quot;font-size: 14px;&quot;&gt;1: authentication request&lt;/font&gt;" style="edgeLabel;html=1;align=center;verticalAlign=middle;resizable=0;points=[];" vertex="1" connectable="0" parent="HoBC95rg8Yf5UBeSWaIH-76">
          <mxGeometry x="-0.0828" relative="1" as="geometry">
            <mxPoint x="-15" as="offset" />
          </mxGeometry>
        </mxCell>
        <mxCell id="HoBC95rg8Yf5UBeSWaIH-80" style="edgeStyle=orthogonalEdgeStyle;rounded=0;orthogonalLoop=1;jettySize=auto;html=1;exitX=0;exitY=0.5;exitDx=0;exitDy=0;" edge="1" parent="HoBC95rg8Yf5UBeSWaIH-95" source="HoBC95rg8Yf5UBeSWaIH-57">
          <mxGeometry relative="1" as="geometry">
            <mxPoint x="301" y="220" as="targetPoint" />
            <Array as="points">
              <mxPoint x="530" y="220" />
              <mxPoint x="301" y="220" />
            </Array>
          </mxGeometry>
        </mxCell>
        <mxCell id="HoBC95rg8Yf5UBeSWaIH-81" value="&lt;font style=&quot;font-size: 14px;&quot;&gt;3: return proof of ownership&lt;br style=&quot;font-size: 14px;&quot;&gt;challenge&amp;nbsp;&lt;/font&gt;" style="edgeLabel;html=1;align=center;verticalAlign=middle;resizable=0;points=[];fontSize=14;" vertex="1" connectable="0" parent="HoBC95rg8Yf5UBeSWaIH-80">
          <mxGeometry x="-0.094" y="-2" relative="1" as="geometry">
            <mxPoint x="-17" y="2" as="offset" />
          </mxGeometry>
        </mxCell>
        <mxCell id="HoBC95rg8Yf5UBeSWaIH-57" value="" style="rounded=0;whiteSpace=wrap;html=1;" vertex="1" parent="HoBC95rg8Yf5UBeSWaIH-95">
          <mxGeometry x="530" y="100" width="40" height="200" as="geometry" />
        </mxCell>
        <mxCell id="HoBC95rg8Yf5UBeSWaIH-60" style="edgeStyle=orthogonalEdgeStyle;rounded=0;orthogonalLoop=1;jettySize=auto;html=1;endArrow=none;endFill=0;dashed=1;" edge="1" parent="HoBC95rg8Yf5UBeSWaIH-95" source="HoBC95rg8Yf5UBeSWaIH-63">
          <mxGeometry relative="1" as="geometry">
            <mxPoint x="60" y="640" as="targetPoint" />
          </mxGeometry>
        </mxCell>
        <mxCell id="HoBC95rg8Yf5UBeSWaIH-86" style="edgeStyle=orthogonalEdgeStyle;rounded=0;orthogonalLoop=1;jettySize=auto;html=1;exitX=1;exitY=0.75;exitDx=0;exitDy=0;" edge="1" parent="HoBC95rg8Yf5UBeSWaIH-95" source="HoBC95rg8Yf5UBeSWaIH-63">
          <mxGeometry relative="1" as="geometry">
            <mxPoint x="260" y="390" as="targetPoint" />
            <Array as="points">
              <mxPoint x="80" y="390" />
              <mxPoint x="260" y="390" />
            </Array>
          </mxGeometry>
        </mxCell>
        <mxCell id="HoBC95rg8Yf5UBeSWaIH-87" value="&lt;font style=&quot;font-size: 14px;&quot;&gt;5: return signature&lt;/font&gt;" style="edgeLabel;html=1;align=center;verticalAlign=middle;resizable=0;points=[];" vertex="1" connectable="0" parent="HoBC95rg8Yf5UBeSWaIH-86">
          <mxGeometry x="-0.4274" y="-1" relative="1" as="geometry">
            <mxPoint x="28" y="-1" as="offset" />
          </mxGeometry>
        </mxCell>
        <mxCell id="HoBC95rg8Yf5UBeSWaIH-63" value="" style="rounded=0;whiteSpace=wrap;html=1;" vertex="1" parent="HoBC95rg8Yf5UBeSWaIH-95">
          <mxGeometry x="40" y="270" width="40" height="160" as="geometry" />
        </mxCell>
        <mxCell id="HoBC95rg8Yf5UBeSWaIH-82" style="edgeStyle=orthogonalEdgeStyle;rounded=0;orthogonalLoop=1;jettySize=auto;html=1;entryX=1;entryY=0.188;entryDx=0;entryDy=0;entryPerimeter=0;" edge="1" parent="HoBC95rg8Yf5UBeSWaIH-95" source="HoBC95rg8Yf5UBeSWaIH-53" target="HoBC95rg8Yf5UBeSWaIH-63">
          <mxGeometry relative="1" as="geometry">
            <Array as="points">
              <mxPoint x="210" y="300" />
              <mxPoint x="210" y="300" />
            </Array>
          </mxGeometry>
        </mxCell>
        <mxCell id="HoBC95rg8Yf5UBeSWaIH-83" value="&lt;font style=&quot;font-size: 14px;&quot;&gt;4: sign&lt;br&gt;challenge request&lt;/font&gt;" style="edgeLabel;html=1;align=center;verticalAlign=middle;resizable=0;points=[];" vertex="1" connectable="0" parent="HoBC95rg8Yf5UBeSWaIH-82">
          <mxGeometry x="0.0417" y="2" relative="1" as="geometry">
            <mxPoint y="-2" as="offset" />
          </mxGeometry>
        </mxCell>
        <mxCell id="HoBC95rg8Yf5UBeSWaIH-64" value="" style="edgeStyle=orthogonalEdgeStyle;rounded=0;orthogonalLoop=1;jettySize=auto;html=1;endArrow=none;endFill=0;dashed=1;" edge="1" parent="HoBC95rg8Yf5UBeSWaIH-95" target="HoBC95rg8Yf5UBeSWaIH-63">
          <mxGeometry relative="1" as="geometry">
            <mxPoint x="320" y="705" as="targetPoint" />
            <mxPoint x="60" y="65" as="sourcePoint" />
          </mxGeometry>
        </mxCell>
        <mxCell id="HoBC95rg8Yf5UBeSWaIH-65" value="" style="group;movable=1;resizable=1;rotatable=1;deletable=1;editable=1;locked=0;connectable=1;" vertex="1" connectable="0" parent="HoBC95rg8Yf5UBeSWaIH-95">
          <mxGeometry x="20" width="89" height="72" as="geometry" />
        </mxCell>
        <mxCell id="HoBC95rg8Yf5UBeSWaIH-66" value="&lt;font style=&quot;font-size: 14px;&quot;&gt;Blockchain wallet&lt;/font&gt;" style="image;aspect=fixed;perimeter=ellipsePerimeter;html=1;align=center;shadow=0;dashed=0;fontColor=#000000;labelBackgroundColor=none;fontSize=12;spacingTop=3;image=img/lib/ibm/blockchain/wallet.svg;labelPosition=center;verticalLabelPosition=top;verticalAlign=bottom;" vertex="1" parent="HoBC95rg8Yf5UBeSWaIH-65">
          <mxGeometry width="60" height="60" as="geometry" />
        </mxCell>
        <mxCell id="HoBC95rg8Yf5UBeSWaIH-67" value="" style="sketch=0;pointerEvents=1;shadow=0;dashed=0;html=1;strokeColor=#FFFFFF;labelPosition=center;verticalLabelPosition=bottom;verticalAlign=top;outlineConnect=0;align=center;shape=mxgraph.office.security.key_permissions;fillColor=#DA4026;rotation=-90;strokeWidth=2;" vertex="1" parent="HoBC95rg8Yf5UBeSWaIH-65">
          <mxGeometry x="50" y="33" width="25" height="53" as="geometry" />
        </mxCell>
        <mxCell id="HoBC95rg8Yf5UBeSWaIH-78" style="edgeStyle=orthogonalEdgeStyle;rounded=0;orthogonalLoop=1;jettySize=auto;html=1;exitX=1;exitY=0.25;exitDx=0;exitDy=0;entryX=1;entryY=0.598;entryDx=0;entryDy=0;entryPerimeter=0;" edge="1" parent="HoBC95rg8Yf5UBeSWaIH-95" source="HoBC95rg8Yf5UBeSWaIH-57" target="HoBC95rg8Yf5UBeSWaIH-57">
          <mxGeometry relative="1" as="geometry">
            <mxPoint x="570" y="140.05" as="sourcePoint" />
            <mxPoint x="580" y="220" as="targetPoint" />
            <Array as="points">
              <mxPoint x="600" y="150" />
              <mxPoint x="600" y="220" />
            </Array>
          </mxGeometry>
        </mxCell>
        <mxCell id="HoBC95rg8Yf5UBeSWaIH-79" value="&lt;font style=&quot;font-size: 14px;&quot;&gt;2: create challenge&lt;br&gt;message&lt;/font&gt;" style="edgeLabel;html=1;align=left;verticalAlign=middle;resizable=0;points=[];labelPosition=right;verticalLabelPosition=middle;" vertex="1" connectable="0" parent="HoBC95rg8Yf5UBeSWaIH-78">
          <mxGeometry y="4" relative="1" as="geometry">
            <mxPoint x="-20" y="-2" as="offset" />
          </mxGeometry>
        </mxCell>
        <mxCell id="HoBC95rg8Yf5UBeSWaIH-84" style="edgeStyle=orthogonalEdgeStyle;rounded=0;orthogonalLoop=1;jettySize=auto;html=1;" edge="1" parent="HoBC95rg8Yf5UBeSWaIH-95">
          <mxGeometry relative="1" as="geometry">
            <mxPoint x="40" y="300" as="sourcePoint" />
            <mxPoint x="41" y="390" as="targetPoint" />
            <Array as="points">
              <mxPoint y="300" />
              <mxPoint y="390" />
              <mxPoint x="41" y="390" />
            </Array>
          </mxGeometry>
        </mxCell>
        <mxCell id="HoBC95rg8Yf5UBeSWaIH-85" value="&lt;font style=&quot;font-size: 14px;&quot;&gt;5: sign challenge &lt;br&gt;&lt;span style=&quot;text-align: left;&quot;&gt;using private key&lt;/span&gt;&lt;/font&gt;" style="edgeLabel;html=1;align=right;verticalAlign=middle;resizable=0;points=[];labelPosition=left;verticalLabelPosition=middle;" vertex="1" connectable="0" parent="HoBC95rg8Yf5UBeSWaIH-84">
          <mxGeometry x="0.0632" y="2" relative="1" as="geometry">
            <mxPoint x="19" y="-7" as="offset" />
          </mxGeometry>
        </mxCell>
        <mxCell id="HoBC95rg8Yf5UBeSWaIH-88" value="" style="edgeStyle=orthogonalEdgeStyle;rounded=0;orthogonalLoop=1;jettySize=auto;html=1;endArrow=none;endFill=0;dashed=1;" edge="1" parent="HoBC95rg8Yf5UBeSWaIH-95" source="HoBC95rg8Yf5UBeSWaIH-57" target="HoBC95rg8Yf5UBeSWaIH-72">
          <mxGeometry relative="1" as="geometry">
            <mxPoint x="550" y="640" as="targetPoint" />
            <Array as="points" />
            <mxPoint x="550" y="300" as="sourcePoint" />
          </mxGeometry>
        </mxCell>
        <mxCell id="HoBC95rg8Yf5UBeSWaIH-93" style="edgeStyle=orthogonalEdgeStyle;rounded=0;orthogonalLoop=1;jettySize=auto;html=1;exitX=0.007;exitY=0.699;exitDx=0;exitDy=0;exitPerimeter=0;" edge="1" parent="HoBC95rg8Yf5UBeSWaIH-95" source="HoBC95rg8Yf5UBeSWaIH-72">
          <mxGeometry relative="1" as="geometry">
            <mxPoint x="300" y="480" as="targetPoint" />
            <Array as="points">
              <mxPoint x="530" y="480" />
            </Array>
          </mxGeometry>
        </mxCell>
        <mxCell id="HoBC95rg8Yf5UBeSWaIH-94" value="&lt;font style=&quot;font-size: 14px;&quot;&gt;8: return result&lt;br&gt;proof of ownership&lt;/font&gt;" style="edgeLabel;html=1;align=center;verticalAlign=middle;resizable=0;points=[];" vertex="1" connectable="0" parent="HoBC95rg8Yf5UBeSWaIH-93">
          <mxGeometry x="0.1011" y="4" relative="1" as="geometry">
            <mxPoint x="12" y="-5" as="offset" />
          </mxGeometry>
        </mxCell>
        <mxCell id="HoBC95rg8Yf5UBeSWaIH-72" value="" style="rounded=0;whiteSpace=wrap;html=1;" vertex="1" parent="HoBC95rg8Yf5UBeSWaIH-95">
          <mxGeometry x="530" y="340" width="40" height="210" as="geometry" />
        </mxCell>
        <mxCell id="HoBC95rg8Yf5UBeSWaIH-89" style="edgeStyle=orthogonalEdgeStyle;rounded=0;orthogonalLoop=1;jettySize=auto;html=1;" edge="1" parent="HoBC95rg8Yf5UBeSWaIH-95" source="HoBC95rg8Yf5UBeSWaIH-53">
          <mxGeometry relative="1" as="geometry">
            <mxPoint x="529" y="390" as="targetPoint" />
            <Array as="points">
              <mxPoint x="360" y="390" />
              <mxPoint x="360" y="390" />
            </Array>
          </mxGeometry>
        </mxCell>
        <mxCell id="HoBC95rg8Yf5UBeSWaIH-90" value="&lt;font style=&quot;font-size: 14px;&quot;&gt;6: send signature&lt;br&gt;verification request&lt;/font&gt;" style="edgeLabel;html=1;align=center;verticalAlign=middle;resizable=0;points=[];" vertex="1" connectable="0" parent="HoBC95rg8Yf5UBeSWaIH-89">
          <mxGeometry x="-0.2" y="2" relative="1" as="geometry">
            <mxPoint x="18" y="2" as="offset" />
          </mxGeometry>
        </mxCell>
        <mxCell id="HoBC95rg8Yf5UBeSWaIH-91" style="edgeStyle=orthogonalEdgeStyle;rounded=0;orthogonalLoop=1;jettySize=auto;html=1;exitX=1;exitY=0.25;exitDx=0;exitDy=0;" edge="1" parent="HoBC95rg8Yf5UBeSWaIH-95" source="HoBC95rg8Yf5UBeSWaIH-72">
          <mxGeometry relative="1" as="geometry">
            <mxPoint x="570" y="480" as="targetPoint" />
            <Array as="points">
              <mxPoint x="600" y="390" />
              <mxPoint x="600" y="480" />
            </Array>
          </mxGeometry>
        </mxCell>
        <mxCell id="HoBC95rg8Yf5UBeSWaIH-92" value="7: verify signature &amp;amp;&lt;br style=&quot;border-color: var(--border-color); text-align: left; font-size: 14px;&quot;&gt;&lt;span style=&quot;text-align: left; font-size: 14px;&quot;&gt;proof of ownership&lt;/span&gt;" style="edgeLabel;html=1;align=center;verticalAlign=middle;resizable=0;points=[];fontSize=14;" vertex="1" connectable="0" parent="HoBC95rg8Yf5UBeSWaIH-91">
          <mxGeometry x="0.0538" y="1" relative="1" as="geometry">
            <mxPoint x="45" y="1" as="offset" />
          </mxGeometry>
        </mxCell>
      </root>
    </mxGraphModel>
  </diagram>
</mxfile>
